<?xml version="1.0" encoding="UTF-8" standalone="no"?>
<!DOCTYPE svg PUBLIC "-//W3C//DTD SVG 1.1//EN"
 "http://www.w3.org/Graphics/SVG/1.1/DTD/svg11.dtd">
<!-- Generated by graphviz version 2.30.1 (20130217.1921)
 -->
<!-- Title: ggg Pages: 1 -->
<svg width="573pt" height="232pt"
 viewBox="0.00 0.00 573.00 232.00" xmlns="http://www.w3.org/2000/svg" xmlns:xlink="http://www.w3.org/1999/xlink">
<g id="graph0" class="graph" transform="scale(1 1) rotate(0) translate(4 228)">
<title>ggg</title>
<polygon fill="white" stroke="white" points="-4,5 -4,-228 570,-228 570,5 -4,5"/>
<g id="clust1" class="cluster"><title>cluster_1</title>
<polygon fill="#eee8cd" stroke="black" points="52,-104 52,-180 406,-180 406,-104 52,-104"/>
<text text-anchor="middle" x="229" y="-162" font-family="Times,serif" font-size="14.00">Mnemosyne</text>
</g>
<g id="clust2" class="cluster"><title>cluster_2</title>
<polygon fill="#c1b2ff" stroke="black" points="8,-8 8,-84 316,-84 316,-8 8,-8"/>
<text text-anchor="middle" x="162" y="-14.8" font-family="Times,serif" font-size="14.00">Mongo collections</text>
</g>
<!-- feedpuller -->
<g id="node1" class="node"><title>feedpuller</title>
<ellipse fill="lightgrey" stroke="black" cx="240" cy="-130" rx="52.0008" ry="18"/>
<text text-anchor="middle" x="240" y="-124.4" font-family="Times,serif" font-size="14.00">Feedpuller</text>
</g>
<!-- hpfeed -->
<g id="node4" class="node"><title>hpfeed</title>
<polygon fill="lightgrey" stroke="black" points="225.921,-76 160.079,-76 160.079,-40 225.921,-40 225.921,-76"/>
<text text-anchor="middle" x="193" y="-52.4" font-family="Times,serif" font-size="14.00">HPFeeds</text>
</g>
<!-- feedpuller&#45;&gt;hpfeed -->
<g id="edge2" class="edge"><title>feedpuller&#45;&gt;hpfeed</title>
<path fill="none" stroke="red" d="M228.862,-112.411C223.349,-104.2 216.567,-94.0991 210.39,-84.8996"/>
<polygon fill="red" stroke="red" points="213.194,-82.798 204.714,-76.4468 207.383,-86.7 213.194,-82.798"/>
</g>
<!-- normalizer -->
<g id="node2" class="node"><title>normalizer</title>
<ellipse fill="lightgrey" stroke="black" cx="115" cy="-130" rx="55.0101" ry="18"/>
<text text-anchor="middle" x="115" y="-124.4" font-family="Times,serif" font-size="14.00">Normalizer</text>
</g>
<!-- file -->
<g id="node5" class="node"><title>file</title>
<polygon fill="lightgrey" stroke="black" points="70,-76 16,-76 16,-40 70,-40 70,-76"/>
<text text-anchor="middle" x="43" y="-52.4" font-family="Times,serif" font-size="14.00">Files</text>
</g>
<!-- normalizer&#45;&gt;file -->
<g id="edge4" class="edge"><title>normalizer&#45;&gt;file</title>
<path fill="none" stroke="green" d="M98.3008,-112.765C89.2965,-104.011 78.0052,-93.0328 67.9769,-83.2831"/>
<polygon fill="green" stroke="green" points="70.2229,-80.5852 60.6132,-76.1239 65.3434,-85.6042 70.2229,-80.5852"/>
</g>
<!-- url -->
<g id="node6" class="node"><title>url</title>
<polygon fill="lightgrey" stroke="black" points="142,-76 88,-76 88,-40 142,-40 142,-76"/>
<text text-anchor="middle" x="115" y="-52.4" font-family="Times,serif" font-size="14.00">URLs</text>
</g>
<!-- normalizer&#45;&gt;url -->
<g id="edge5" class="edge"><title>normalizer&#45;&gt;url</title>
<path fill="none" stroke="green" d="M115,-111.697C115,-103.983 115,-94.7125 115,-86.1124"/>
<polygon fill="green" stroke="green" points="118.5,-86.1043 115,-76.1043 111.5,-86.1044 118.5,-86.1043"/>
</g>
<!-- session -->
<g id="node7" class="node"><title>session</title>
<polygon fill="lightgrey" stroke="black" points="308.176,-76 243.824,-76 243.824,-40 308.176,-40 308.176,-76"/>
<text text-anchor="middle" x="276" y="-52.4" font-family="Times,serif" font-size="14.00">Sessions</text>
</g>
<!-- normalizer&#45;&gt;session -->
<g id="edge6" class="edge"><title>normalizer&#45;&gt;session</title>
<path fill="none" stroke="green" d="M148.477,-115.709C158.29,-111.871 169.055,-107.717 179,-104 203.756,-94.7465 211.149,-95.3834 235,-84 236.806,-83.1382 238.633,-82.2182 240.463,-81.2586"/>
<polygon fill="green" stroke="green" points="242.493,-84.1342 249.532,-76.2156 239.091,-78.0164 242.493,-84.1342"/>
</g>
<!-- webapi -->
<g id="node3" class="node"><title>webapi</title>
<ellipse fill="lightgrey" stroke="black" cx="354" cy="-130" rx="44.0867" ry="18"/>
<text text-anchor="middle" x="354" y="-124.4" font-family="Times,serif" font-size="14.00">WebAPI</text>
</g>
<!-- mnemo -->
<g id="node9" class="node"><title>mnemo</title>
<ellipse fill="none" stroke="black" cx="446" cy="-58" rx="119.077" ry="18"/>
<text text-anchor="middle" x="446" y="-52.4" font-family="Times,serif" font-size="14.00">mnemosyne.honeycloud.net</text>
</g>
<!-- webapi&#45;&gt;mnemo -->
<g id="edge8" class="edge"><title>webapi&#45;&gt;mnemo</title>
<path fill="none" stroke="black" d="M373.963,-113.811C386.129,-104.554 401.919,-92.5399 415.614,-82.1198"/>
<polygon fill="black" stroke="black" points="417.98,-84.7174 423.819,-75.8767 413.742,-79.1466 417.98,-84.7174"/>
</g>
<!-- hpfeed&#45;&gt;normalizer -->
<g id="edge3" class="edge"><title>hpfeed&#45;&gt;normalizer</title>
<path fill="none" stroke="red" d="M173.919,-76.1239C163.905,-85.1106 151.497,-96.2466 140.653,-105.978"/>
<polygon fill="red" stroke="red" points="138.196,-103.481 133.091,-112.765 142.871,-108.69 138.196,-103.481"/>
</g>
<!-- session&#45;&gt;webapi -->
<g id="edge7" class="edge"><title>session&#45;&gt;webapi</title>
<path fill="none" stroke="black" d="M303.629,-83.7951C308.636,-88.2888 313.917,-93.0284 319.101,-97.6802"/>
<polygon fill="black" stroke="black" points="316.823,-100.339 326.603,-104.413 321.499,-95.1294 316.823,-100.339"/>
</g>
<!-- hpf -->
<g id="node8" class="node"><title>hpf</title>
<ellipse fill="none" stroke="black" cx="240" cy="-206" rx="102.623" ry="18"/>
<text text-anchor="middle" x="240" y="-200.4" font-family="Times,serif" font-size="14.00">hpfeeds.honeycloud.net</text>
</g>
<!-- hpf&#45;&gt;feedpuller -->
<g id="edge1" class="edge"><title>hpf&#45;&gt;feedpuller</title>
<path fill="none" stroke="red" d="M240,-187.837C240,-179.058 240,-168.163 240,-158.267"/>
<polygon fill="red" stroke="red" points="243.5,-158.07 240,-148.07 236.5,-158.07 243.5,-158.07"/>
</g>
</g>
</svg>
