<?xml version="1.0" encoding="UTF-8" standalone="no"?>
<!DOCTYPE svg PUBLIC "-//W3C//DTD SVG 1.1//EN"
 "http://www.w3.org/Graphics/SVG/1.1/DTD/svg11.dtd">
<!-- Generated by graphviz version 2.30.1 (20130217.1921)
 -->
<!-- Title: aa Pages: 1 -->
<svg width="422pt" height="232pt"
 viewBox="0.00 0.00 422.00 232.00" xmlns="http://www.w3.org/2000/svg" xmlns:xlink="http://www.w3.org/1999/xlink">
<g id="graph0" class="graph" transform="scale(1 1) rotate(0) translate(4 228)">
<title>aa</title>
<polygon fill="white" stroke="white" points="-4,5 -4,-228 419,-228 419,5 -4,5"/>
<g id="clust1" class="cluster"><title>cluster_1</title>
<polygon fill="#eee8cd" stroke="black" points="42,-104 42,-180 396,-180 396,-104 42,-104"/>
<text text-anchor="middle" x="219" y="-162" font-family="Times,serif" font-size="14.00">Mnemosyne</text>
</g>
<g id="clust2" class="cluster"><title>cluster_2</title>
<polygon fill="none" stroke="black" points="138,-8 138,-84 406,-84 406,-8 138,-8"/>
<text text-anchor="middle" x="272" y="-14.8" font-family="Times,serif" font-size="14.00">Mongo collections</text>
</g>
<!-- feedpuller -->
<g id="node1" class="node"><title>feedpuller</title>
<ellipse fill="lightgrey" stroke="black" cx="102" cy="-130" rx="52.0008" ry="18"/>
<text text-anchor="middle" x="102" y="-124.4" font-family="Times,serif" font-size="14.00">Feedpuller</text>
</g>
<!-- hpfeed -->
<g id="node8" class="node"><title>hpfeed</title>
<ellipse fill="none" stroke="black" cx="91" cy="-58" rx="36.967" ry="18"/>
<text text-anchor="middle" x="91" y="-52.4" font-family="Times,serif" font-size="14.00">hpfeed</text>
</g>
<!-- feedpuller&#45;&gt;hpfeed -->
<g id="edge2" class="edge"><title>feedpuller&#45;&gt;hpfeed</title>
<path fill="none" stroke="red" d="M99.2809,-111.697C98.0687,-103.983 96.612,-94.7125 95.2605,-86.1124"/>
<polygon fill="red" stroke="red" points="98.6979,-85.4397 93.6878,-76.1043 91.7827,-86.5265 98.6979,-85.4397"/>
</g>
<!-- normalizer -->
<g id="node2" class="node"><title>normalizer</title>
<ellipse fill="lightgrey" stroke="black" cx="227" cy="-130" rx="55.0101" ry="18"/>
<text text-anchor="middle" x="227" y="-124.4" font-family="Times,serif" font-size="14.00">Normalizer</text>
</g>
<!-- file -->
<g id="node4" class="node"><title>file</title>
<ellipse fill="none" stroke="black" cx="262" cy="-58" rx="29.2299" ry="18"/>
<text text-anchor="middle" x="262" y="-52.4" font-family="Times,serif" font-size="14.00">Files</text>
</g>
<!-- normalizer&#45;&gt;file -->
<g id="edge4" class="edge"><title>normalizer&#45;&gt;file</title>
<path fill="none" stroke="green" d="M235.473,-112.055C239.617,-103.767 244.691,-93.6178 249.288,-84.4241"/>
<polygon fill="green" stroke="green" points="252.505,-85.8165 253.847,-75.307 246.244,-82.686 252.505,-85.8165"/>
</g>
<!-- url -->
<g id="node5" class="node"><title>url</title>
<ellipse fill="none" stroke="black" cx="180" cy="-58" rx="34.1629" ry="18"/>
<text text-anchor="middle" x="180" y="-52.4" font-family="Times,serif" font-size="14.00">URLs</text>
</g>
<!-- normalizer&#45;&gt;url -->
<g id="edge5" class="edge"><title>normalizer&#45;&gt;url</title>
<path fill="none" stroke="green" d="M215.623,-112.055C209.94,-103.592 202.956,-93.1897 196.681,-83.8447"/>
<polygon fill="green" stroke="green" points="199.429,-81.6582 190.949,-75.307 193.618,-85.5603 199.429,-81.6582"/>
</g>
<!-- session -->
<g id="node6" class="node"><title>session</title>
<ellipse fill="none" stroke="black" cx="354" cy="-58" rx="43.963" ry="18"/>
<text text-anchor="middle" x="354" y="-52.4" font-family="Times,serif" font-size="14.00">Sessions</text>
</g>
<!-- normalizer&#45;&gt;session -->
<g id="edge6" class="edge"><title>normalizer&#45;&gt;session</title>
<path fill="none" stroke="green" d="M253.933,-114.155C273.215,-103.527 299.32,-89.1387 320.032,-77.7226"/>
<polygon fill="green" stroke="green" points="321.765,-80.764 328.833,-72.8716 318.386,-74.6335 321.765,-80.764"/>
</g>
<!-- webapi -->
<g id="node3" class="node"><title>webapi</title>
<ellipse fill="lightgrey" stroke="black" cx="344" cy="-130" rx="44.0867" ry="18"/>
<text text-anchor="middle" x="344" y="-124.4" font-family="Times,serif" font-size="14.00">WebAPI</text>
</g>
<!-- session&#45;&gt;webapi -->
<g id="edge7" class="edge"><title>session&#45;&gt;webapi</title>
<path fill="none" stroke="black" d="M351.557,-76.1043C350.458,-83.7913 349.135,-93.0537 347.905,-101.665"/>
<polygon fill="black" stroke="black" points="344.421,-101.302 346.472,-111.697 351.351,-102.292 344.421,-101.302"/>
</g>
<!-- hpf -->
<g id="node7" class="node"><title>hpf</title>
<ellipse fill="none" stroke="black" cx="102" cy="-206" rx="102.623" ry="18"/>
<text text-anchor="middle" x="102" y="-200.4" font-family="Times,serif" font-size="14.00">hpfeeds.honeycloud.net</text>
</g>
<!-- hpf&#45;&gt;feedpuller -->
<g id="edge1" class="edge"><title>hpf&#45;&gt;feedpuller</title>
<path fill="none" stroke="red" d="M102,-187.837C102,-179.058 102,-168.163 102,-158.267"/>
<polygon fill="red" stroke="red" points="105.5,-158.07 102,-148.07 98.5001,-158.07 105.5,-158.07"/>
</g>
<!-- hpfeed&#45;&gt;normalizer -->
<g id="edge3" class="edge"><title>hpfeed&#45;&gt;normalizer</title>
<path fill="none" stroke="red" d="M113.581,-72.5598C120.112,-76.3639 127.29,-80.4328 134,-84 151.211,-93.1502 170.568,-102.641 187.149,-110.534"/>
<polygon fill="red" stroke="red" points="186.016,-113.87 196.553,-114.982 189.009,-107.542 186.016,-113.87"/>
</g>
</g>
</svg>
