<?xml version="1.0" encoding="UTF-8" standalone="no"?>
<!DOCTYPE svg PUBLIC "-//W3C//DTD SVG 1.1//EN"
 "http://www.w3.org/Graphics/SVG/1.1/DTD/svg11.dtd">
<!-- Generated by graphviz version 2.30.1 (20130217.1921)
 -->
<!-- Title: foonrtwo Pages: 1 -->
<svg width="232pt" height="156pt"
 viewBox="0.00 0.00 232.00 156.00" xmlns="http://www.w3.org/2000/svg" xmlns:xlink="http://www.w3.org/1999/xlink">
<g id="graph0" class="graph" transform="scale(1 1) rotate(0) translate(4 152)">
<title>foonrtwo</title>
<polygon fill="white" stroke="white" points="-4,5 -4,-152 229,-152 229,5 -4,5"/>
<!-- HPFeed -->
<g id="node1" class="node"><title>HPFeed</title>
<polygon fill="aquamarine" stroke="black" points="54,-90 0,-90 0,-54 54,-54 54,-90"/>
<text text-anchor="middle" x="27" y="-68" font-family="Times,serif" font-size="10.00">HPFeed</text>
</g>
<!-- Session -->
<g id="node2" class="node"><title>Session</title>
<polygon fill="aquamarine" stroke="black" points="144,-144 90,-144 90,-108 144,-108 144,-144"/>
<text text-anchor="middle" x="117" y="-122" font-family="Times,serif" font-size="10.00">Session</text>
</g>
<!-- HPFeed&#45;&gt;Session -->
<g id="edge1" class="edge"><title>HPFeed&#45;&gt;Session</title>
<path fill="none" stroke="black" d="M54.4029,-88.2018C62.8323,-93.3743 72.2933,-99.18 81.2235,-104.66"/>
<polygon fill="black" stroke="black" points="79.5652,-107.749 89.919,-109.996 83.2263,-101.782 79.5652,-107.749"/>
</g>
<!-- URL -->
<g id="node3" class="node"><title>URL</title>
<polygon fill="aquamarine" stroke="black" points="144,-90 90,-90 90,-54 144,-54 144,-90"/>
<text text-anchor="middle" x="117" y="-68" font-family="Times,serif" font-size="10.00">URL</text>
</g>
<!-- HPFeed&#45;&gt;URL -->
<g id="edge2" class="edge"><title>HPFeed&#45;&gt;URL</title>
<path fill="none" stroke="black" d="M54.4029,-72C62.3932,-72 71.3106,-72 79.8241,-72"/>
<polygon fill="black" stroke="black" points="79.919,-75.5001 89.919,-72 79.919,-68.5001 79.919,-75.5001"/>
</g>
<!-- File -->
<g id="node4" class="node"><title>File</title>
<polygon fill="aquamarine" stroke="black" points="144,-36 90,-36 90,-0 144,-0 144,-36"/>
<text text-anchor="middle" x="117" y="-14" font-family="Times,serif" font-size="10.00">File</text>
</g>
<!-- HPFeed&#45;&gt;File -->
<g id="edge3" class="edge"><title>HPFeed&#45;&gt;File</title>
<path fill="none" stroke="black" d="M54.4029,-55.7982C62.8323,-50.6257 72.2933,-44.82 81.2235,-39.3401"/>
<polygon fill="black" stroke="black" points="83.2263,-42.2176 89.919,-34.0043 79.5652,-36.2513 83.2263,-42.2176"/>
</g>
<!-- protocol -->
<g id="node5" class="node"><title>protocol</title>
<ellipse fill="aquamarine" stroke="black" cx="202" cy="-126" rx="22.1784" ry="22.1784"/>
<text text-anchor="middle" x="202" y="-123.2" font-family="Times,serif" font-size="7.00">protocol</text>
</g>
<!-- Session&#45;&gt;protocol -->
<g id="edge4" class="edge"><title>Session&#45;&gt;protocol</title>
<path fill="none" stroke="black" d="M144.262,-126C152.343,-126 161.319,-126 169.704,-126"/>
<polygon fill="black" stroke="black" points="169.895,-129.5 179.895,-126 169.895,-122.5 169.895,-129.5"/>
</g>
</g>
</svg>
