<?xml version="1.0" encoding="UTF-8" standalone="no"?>
<!DOCTYPE svg PUBLIC "-//W3C//DTD SVG 1.1//EN"
 "http://www.w3.org/Graphics/SVG/1.1/DTD/svg11.dtd">
<!-- Generated by graphviz version 2.30.1 (20130217.1921)
 -->
<!-- Title: ggg Pages: 1 -->
<svg width="412pt" height="232pt"
 viewBox="0.00 0.00 412.00 232.00" xmlns="http://www.w3.org/2000/svg" xmlns:xlink="http://www.w3.org/1999/xlink">
<g id="graph0" class="graph" transform="scale(1 1) rotate(0) translate(4 228)">
<title>ggg</title>
<polygon fill="white" stroke="white" points="-4,5 -4,-228 409,-228 409,5 -4,5"/>
<g id="clust1" class="cluster"><title>cluster_1</title>
<polygon fill="#eee8cd" stroke="black" points="8,-104 8,-180 362,-180 362,-104 8,-104"/>
<text text-anchor="middle" x="185" y="-162" font-family="Times,serif" font-size="14.00">Mnemosyne</text>
</g>
<g id="clust2" class="cluster"><title>cluster_2</title>
<polygon fill="#c1b2ff" stroke="black" points="27,-8 27,-84 335,-84 335,-8 27,-8"/>
<text text-anchor="middle" x="181" y="-14.8" font-family="Times,serif" font-size="14.00">Mongo collections</text>
</g>
<!-- feedpuller -->
<g id="node1" class="node"><title>feedpuller</title>
<ellipse fill="lightgrey" stroke="black" cx="302" cy="-130" rx="52.0008" ry="18"/>
<text text-anchor="middle" x="302" y="-124.4" font-family="Times,serif" font-size="14.00">Feedpuller</text>
</g>
<!-- hpfeed -->
<g id="node4" class="node"><title>hpfeed</title>
<polygon fill="lightgrey" stroke="black" points="326.921,-76 261.079,-76 261.079,-40 326.921,-40 326.921,-76"/>
<text text-anchor="middle" x="294" y="-52.4" font-family="Times,serif" font-size="14.00">HPFeeds</text>
</g>
<!-- feedpuller&#45;&gt;hpfeed -->
<g id="edge2" class="edge"><title>feedpuller&#45;&gt;hpfeed</title>
<path fill="none" stroke="red" d="M300.022,-111.697C299.141,-103.983 298.081,-94.7125 297.099,-86.1124"/>
<polygon fill="red" stroke="red" points="300.568,-85.6422 295.955,-76.1043 293.613,-86.4371 300.568,-85.6422"/>
</g>
<!-- normalizer -->
<g id="node2" class="node"><title>normalizer</title>
<ellipse fill="lightgrey" stroke="black" cx="177" cy="-130" rx="55.0101" ry="18"/>
<text text-anchor="middle" x="177" y="-124.4" font-family="Times,serif" font-size="14.00">Normalizer</text>
</g>
<!-- file -->
<g id="node5" class="node"><title>file</title>
<polygon fill="lightgrey" stroke="black" points="243,-76 189,-76 189,-40 243,-40 243,-76"/>
<text text-anchor="middle" x="216" y="-52.4" font-family="Times,serif" font-size="14.00">Files</text>
</g>
<!-- normalizer&#45;&gt;file -->
<g id="edge4" class="edge"><title>normalizer&#45;&gt;file</title>
<path fill="none" stroke="green" d="M186.441,-112.055C190.925,-104.007 196.386,-94.2046 201.388,-85.2259"/>
<polygon fill="green" stroke="green" points="204.566,-86.7145 206.375,-76.2753 198.451,-83.3075 204.566,-86.7145"/>
</g>
<!-- url -->
<g id="node6" class="node"><title>url</title>
<polygon fill="lightgrey" stroke="black" points="171,-76 117,-76 117,-40 171,-40 171,-76"/>
<text text-anchor="middle" x="144" y="-52.4" font-family="Times,serif" font-size="14.00">URLs</text>
</g>
<!-- normalizer&#45;&gt;url -->
<g id="edge5" class="edge"><title>normalizer&#45;&gt;url</title>
<path fill="none" stroke="green" d="M169.012,-112.055C165.257,-104.091 160.694,-94.4107 156.497,-85.5097"/>
<polygon fill="green" stroke="green" points="159.574,-83.8281 152.144,-76.2753 153.242,-86.8131 159.574,-83.8281"/>
</g>
<!-- session -->
<g id="node7" class="node"><title>session</title>
<polygon fill="lightgrey" stroke="black" points="99.176,-76 34.824,-76 34.824,-40 99.176,-40 99.176,-76"/>
<text text-anchor="middle" x="67" y="-52.4" font-family="Times,serif" font-size="14.00">Sessions</text>
</g>
<!-- normalizer&#45;&gt;session -->
<g id="edge6" class="edge"><title>normalizer&#45;&gt;session</title>
<path fill="none" stroke="green" d="M152.86,-113.638C138.132,-104.266 119.04,-92.1162 102.6,-81.6543"/>
<polygon fill="green" stroke="green" points="104.099,-78.4602 93.7837,-76.0442 100.341,-84.3658 104.099,-78.4602"/>
</g>
<!-- webapi -->
<g id="node3" class="node"><title>webapi</title>
<ellipse fill="lightgrey" stroke="black" cx="60" cy="-130" rx="44.0867" ry="18"/>
<text text-anchor="middle" x="60" y="-124.4" font-family="Times,serif" font-size="14.00">WebAPI</text>
</g>
<!-- hpfeed&#45;&gt;normalizer -->
<g id="edge3" class="edge"><title>hpfeed&#45;&gt;normalizer</title>
<path fill="none" stroke="red" d="M265.236,-76.2094C248.761,-86.0662 228,-98.4874 210.755,-108.805"/>
<polygon fill="red" stroke="red" points="208.884,-105.846 202.099,-113.983 212.478,-111.853 208.884,-105.846"/>
</g>
<!-- session&#45;&gt;webapi -->
<g id="edge7" class="edge"><title>session&#45;&gt;webapi</title>
<path fill="none" stroke="black" d="M64.5296,-83.7045C63.9483,-89.5167 63.3255,-95.7448 62.7335,-101.665"/>
<polygon fill="black" stroke="black" points="62.4623,-93.4304 61.7303,-104 68.8938,-96.1938 62.4623,-93.4304"/>
</g>
<!-- hpf -->
<g id="node8" class="node"><title>hpf</title>
<ellipse fill="none" stroke="black" cx="302" cy="-206" rx="102.623" ry="18"/>
<text text-anchor="middle" x="302" y="-200.4" font-family="Times,serif" font-size="14.00">hpfeeds.honeycloud.net</text>
</g>
<!-- hpf&#45;&gt;feedpuller -->
<g id="edge1" class="edge"><title>hpf&#45;&gt;feedpuller</title>
<path fill="none" stroke="red" d="M302,-187.837C302,-179.058 302,-168.163 302,-158.267"/>
<polygon fill="red" stroke="red" points="305.5,-158.07 302,-148.07 298.5,-158.07 305.5,-158.07"/>
</g>
</g>
</svg>
