<?xml version="1.0" encoding="UTF-8" standalone="no"?>
<!DOCTYPE svg PUBLIC "-//W3C//DTD SVG 1.1//EN"
 "http://www.w3.org/Graphics/SVG/1.1/DTD/svg11.dtd">
<!-- Generated by graphviz version 2.30.1 (20130217.1921)
 -->
<!-- Title: aa Pages: 1 -->
<svg width="412pt" height="192pt"
 viewBox="0.00 0.00 412.00 192.00" xmlns="http://www.w3.org/2000/svg" xmlns:xlink="http://www.w3.org/1999/xlink">
<g id="graph0" class="graph" transform="scale(1 1) rotate(0) translate(4 188)">
<title>aa</title>
<polygon fill="white" stroke="white" points="-4,5 -4,-188 409,-188 409,5 -4,5"/>
<g id="clust1" class="cluster"><title>cluster_1</title>
<polygon fill="#eee8cd" stroke="black" points="42,-64 42,-140 396,-140 396,-64 42,-64"/>
<text text-anchor="middle" x="219" y="-122" font-family="Times,serif" font-size="14.00">Mnemosyne</text>
</g>
<!-- feedpuller -->
<g id="node1" class="node"><title>feedpuller</title>
<ellipse fill="lightgrey" stroke="black" cx="102" cy="-90" rx="52.0008" ry="18"/>
<text text-anchor="middle" x="102" y="-84.4" font-family="Times,serif" font-size="14.00">Feedpuller</text>
</g>
<!-- hpfeed -->
<g id="node5" class="node"><title>hpfeed</title>
<ellipse fill="none" stroke="black" cx="104" cy="-18" rx="36.967" ry="18"/>
<text text-anchor="middle" x="104" y="-12.4" font-family="Times,serif" font-size="14.00">hpfeed</text>
</g>
<!-- feedpuller&#45;&gt;hpfeed -->
<g id="edge2" class="edge"><title>feedpuller&#45;&gt;hpfeed</title>
<path fill="none" stroke="red" d="M102.494,-71.6966C102.715,-63.9827 102.98,-54.7125 103.225,-46.1124"/>
<polygon fill="red" stroke="red" points="106.724,-46.2002 103.511,-36.1043 99.727,-46.0003 106.724,-46.2002"/>
</g>
<!-- normalizer -->
<g id="node2" class="node"><title>normalizer</title>
<ellipse fill="lightgrey" stroke="black" cx="227" cy="-90" rx="55.0101" ry="18"/>
<text text-anchor="middle" x="227" y="-84.4" font-family="Times,serif" font-size="14.00">Normalizer</text>
</g>
<!-- file -->
<g id="node6" class="node"><title>file</title>
<ellipse fill="none" stroke="black" cx="187" cy="-18" rx="27" ry="18"/>
<text text-anchor="middle" x="187" y="-12.4" font-family="Times,serif" font-size="14.00">file</text>
</g>
<!-- normalizer&#45;&gt;file -->
<g id="edge4" class="edge"><title>normalizer&#45;&gt;file</title>
<path fill="none" stroke="green" d="M217.317,-72.055C212.531,-63.6793 206.659,-53.4039 201.362,-44.1341"/>
<polygon fill="green" stroke="green" points="204.319,-42.2529 196.318,-35.307 198.241,-45.7259 204.319,-42.2529"/>
</g>
<!-- url -->
<g id="node7" class="node"><title>url</title>
<ellipse fill="none" stroke="black" cx="259" cy="-18" rx="27" ry="18"/>
<text text-anchor="middle" x="259" y="-12.4" font-family="Times,serif" font-size="14.00">url</text>
</g>
<!-- normalizer&#45;&gt;url -->
<g id="edge5" class="edge"><title>normalizer&#45;&gt;url</title>
<path fill="none" stroke="green" d="M234.746,-72.055C238.535,-63.7665 243.175,-53.6178 247.378,-44.4241"/>
<polygon fill="green" stroke="green" points="250.571,-45.8569 251.545,-35.307 244.205,-42.9466 250.571,-45.8569"/>
</g>
<!-- session -->
<g id="node8" class="node"><title>session</title>
<ellipse fill="none" stroke="black" cx="343" cy="-18" rx="38.4063" ry="18"/>
<text text-anchor="middle" x="343" y="-12.4" font-family="Times,serif" font-size="14.00">session</text>
</g>
<!-- normalizer&#45;&gt;session -->
<g id="edge6" class="edge"><title>normalizer&#45;&gt;session</title>
<path fill="none" stroke="green" d="M252.17,-73.811C269.578,-63.3062 292.87,-49.251 311.508,-38.0038"/>
<polygon fill="green" stroke="green" points="313.484,-40.8992 320.238,-32.7358 309.868,-34.9058 313.484,-40.8992"/>
</g>
<!-- webapi -->
<g id="node3" class="node"><title>webapi</title>
<ellipse fill="lightgrey" stroke="black" cx="344" cy="-90" rx="44.0867" ry="18"/>
<text text-anchor="middle" x="344" y="-84.4" font-family="Times,serif" font-size="14.00">WebAPI</text>
</g>
<!-- hpf -->
<g id="node4" class="node"><title>hpf</title>
<ellipse fill="none" stroke="black" cx="102" cy="-166" rx="102.623" ry="18"/>
<text text-anchor="middle" x="102" y="-160.4" font-family="Times,serif" font-size="14.00">hpfeeds.honeycloud.net</text>
</g>
<!-- hpf&#45;&gt;feedpuller -->
<g id="edge1" class="edge"><title>hpf&#45;&gt;feedpuller</title>
<path fill="none" stroke="red" d="M102,-147.837C102,-139.058 102,-128.163 102,-118.267"/>
<polygon fill="red" stroke="red" points="105.5,-118.07 102,-108.07 98.5001,-118.07 105.5,-118.07"/>
</g>
<!-- hpfeed&#45;&gt;normalizer -->
<g id="edge3" class="edge"><title>hpfeed&#45;&gt;normalizer</title>
<path fill="none" stroke="red" d="M127.436,-32.3377C145.633,-42.6937 171.157,-57.2197 191.806,-68.971"/>
<polygon fill="red" stroke="red" points="190.191,-72.0789 200.613,-73.9832 193.653,-65.9951 190.191,-72.0789"/>
</g>
<!-- session&#45;&gt;webapi -->
<g id="edge7" class="edge"><title>session&#45;&gt;webapi</title>
<path fill="none" stroke="black" d="M343.244,-36.1043C343.354,-43.7913 343.486,-53.0537 343.61,-61.6651"/>
<polygon fill="black" stroke="black" points="340.11,-61.7477 343.753,-71.6966 347.11,-61.6476 340.11,-61.7477"/>
</g>
</g>
</svg>
